# xmcd
#
# Track frame offsets:
#	150
#	13324
#	28452
#	42681
#	56490
#	69278
#	82718
#	95566
#	110766
#	125317
#	135344
#	146496
#	158678
#	172391
#	180940
#	194095
#	206905
#	219300
#	233480
#	248827
#	259126
#
# Disc length: 3627 seconds
#
# Revision: 0
# Processed by: cddbd v1.5.2PL0 Copyright (c) Steve Scherf et al.
# Submitted via: EasyCDDAExtractor 4.6.0.1
#
DISCID=320e2915
DTITLE=Dinah Washington - CD1_the queen
DYEAR=1900
DGENRE=
TTITLE0=evil gal blues
TTITLE1=blow top blues
TTITLE2=my lovin' papa
TTITLE3=the man I love
TTITLE4=oo wee walkie talkie
TTITLE5=postman blues
TTITLE6=aint misbehavin'
TTITLE7=resolution blues
TTITLE8=long John blues
TTITLE9=good daddy blues
TTITLE10=it isn't fair
TTITLE11=baby got lost
TTITLE12=I wanna be loved
TTITLE13=fast movin' mama
TTITLE14=richest guy in the graveyard
TTITLE15=I'll never be free
TTITLE16=big deal
TTITLE17=ain't nobody's business but my own
TTITLE18=I won't cry amymore
TTITLE19=wheel of fortune
TTITLE20=trouble in mind
EXTD=
EXTT0=
EXTT1=
EXTT2=
EXTT3=
EXTT4=
EXTT5=
EXTT6=
EXTT7=
EXTT8=
EXTT9=
EXTT10=
EXTT11=
EXTT12=
EXTT13=
EXTT14=
EXTT15=
EXTT16=
EXTT17=
EXTT18=
EXTT19=
EXTT20=
PLAYORDER=
